<svg xmlns="http://www.w3.org/2000/svg" width="18.707" height="17.885" viewBox="0 0 18.707 17.885">
  <g id="Layer_3" data-name="Layer 3" transform="translate(0.75 0.75)">
    <path id="Path_111" data-name="Path 111" d="M4.4,3H6.98a.726.726,0,0,1,.728.726v6.366a.726.726,0,0,1-.726.726H4.4a.726.726,0,0,1-.742-.726V3.725A.728.728,0,0,1,4.4,3Z" transform="translate(9.499 -3)" fill="none" stroke="#ff420e" stroke-linecap="round" stroke-linejoin="round" stroke-width="1.5"/>
    <path id="Path_112" data-name="Path 112" d="M19.18,9.264a1.222,1.222,0,0,1,.412-.827.6.6,0,0,0,.071-.779,1.234,1.234,0,0,1-.22-.748c0-.613.785-1.084.793-1.087l.147-.085V4.22c0-.615,1.166-1.087,1.623-1.22h3.453a28.781,28.781,0,0,1,5.166.319,1.344,1.344,0,0,0-.056.407v6.366a1.3,1.3,0,0,0,.231.745c-4.17,5.036-4.17,7.086-4.17,8.077,0,.226-.059.37-.175.423-.206.1-.672,0-1.256-.452-.847-.649-.3-2.8.172-3.808a2.916,2.916,0,0,0,.116-2.018A.6.6,0,0,0,25.2,12.7a.627.627,0,0,0-.471-.048c-2.394.726-4.1.353-4.887-.234-.282-.2-.373-.387-.373-.457a1.694,1.694,0,0,1,.3-.875.6.6,0,0,0-.051-.731A1.964,1.964,0,0,1,19.18,9.264Z" transform="translate(-19.18 -3)" fill="none" stroke="#ff420e" stroke-linecap="round" stroke-linejoin="round" stroke-width="1.5"/>
  </g>
</svg>
