<svg id="Group_73" data-name="Group 73" xmlns="http://www.w3.org/2000/svg" width="18" height="18" viewBox="0 0 18 18">
  <path id="Path_57" data-name="Path 57" d="M96,153.006a9,9,0,1,0,9-9A9.011,9.011,0,0,0,96,153.006Zm16.364,0A7.364,7.364,0,1,1,105,145.642,7.373,7.373,0,0,1,112.363,153.006Z" transform="translate(-95.999 -144.006)" fill="#fff"/>
  <path id="Path_58" data-name="Path 58" d="M147.437,192.865v2.578h-2.578a.859.859,0,1,0,0,1.719h2.578v2.578a.859.859,0,1,0,1.719,0v-2.578h2.578a.859.859,0,1,0,0-1.719h-2.578v-2.578a.859.859,0,1,0-1.719,0Z" transform="translate(-139.296 -187.303)" fill="#fff"/>
</svg>
