<svg xmlns="http://www.w3.org/2000/svg" width="18.707" height="17.885" viewBox="0 0 18.707 17.885">
  <g id="Layer_3" data-name="Layer 3" transform="translate(1.75 0.763)">
    <path id="Path_111" data-name="Path 111" d="M6.969,10.817H4.388a.726.726,0,0,1-.728-.726V3.725A.726.726,0,0,1,4.386,3h2.58a.726.726,0,0,1,.742.726v6.366a.728.728,0,0,1-.74.726Z" transform="translate(-4.66 5.555)" fill="none" stroke="#159aea" stroke-linecap="round" stroke-linejoin="round" stroke-width="1.5"/>
    <path id="Path_112" data-name="Path 112" d="M30.8,13.108a1.222,1.222,0,0,1-.412.827.6.6,0,0,0-.071.779,1.234,1.234,0,0,1,.22.748c0,.613-.785,1.084-.793,1.087l-.147.085v1.519c0,.615-1.166,1.087-1.623,1.22H24.521a28.781,28.781,0,0,1-5.166-.319,1.344,1.344,0,0,0,.056-.407V12.28a1.3,1.3,0,0,0-.231-.745c4.17-5.036,4.17-7.086,4.17-8.077,0-.226.059-.37.175-.423.206-.1.672,0,1.256.452.847.649.3,2.8-.172,3.808a2.916,2.916,0,0,0-.116,2.018.6.6,0,0,0,.282.356.627.627,0,0,0,.471.048c2.394-.726,4.1-.353,4.887.234.282.2.373.387.373.457a1.694,1.694,0,0,1-.3.875.6.6,0,0,0,.051.731A1.964,1.964,0,0,1,30.8,13.108Z" transform="translate(-14.593 -3)" fill="none" stroke="#159aea" stroke-linecap="round" stroke-linejoin="round" stroke-width="1.5"/>
  </g>
</svg>
