<svg id="Component_44_1" data-name="Component 44 – 1" xmlns="http://www.w3.org/2000/svg" xmlns:xlink="http://www.w3.org/1999/xlink" width="147" height="39.03" viewBox="0 0 147 39.03">
  <defs>
    <clipPath id="clip-path">
      <path id="Path_51" data-name="Path 51" d="M90.673,52.31H83.517a3.453,3.453,0,0,0-2.677,1.977,4,4,0,0,0-.288,3.653c-.1,0-2.652.338-2.752.338h7.506c0-.225-.138-.2-.2-.475l1.551.863-1.8,1.088.25-.425h-6.33a2.5,2.5,0,0,0-.863,0,6.68,6.68,0,0,1,1.251.225,17.676,17.676,0,0,1-.538,2.077h.888c1.176,0,6.618.1,7.106-.088a4.066,4.066,0,0,0,1.526-1.251,4.116,4.116,0,0,0,.913-3.253c-.188-1.151-.926-1.063.926-1.251.363,0,.938-.125,1.251-.15H83.73c0,.213.15.213.225.45a8.857,8.857,0,0,1-1.539-.851,10.341,10.341,0,0,1,.876-.55c.288-.175.575-.363.888-.525l-.238.425h7.431c-.075,0-.963-.138-1.151-.175-1.126-.163-.963-.175-.438-.913a6.118,6.118,0,0,0,.888-1.188Z" transform="translate(-77.8 -52.31)" fill="none"/>
    </clipPath>
  </defs>
  <path id="Path_43" data-name="Path 43" d="M115.323,50.774h13.236c0-.15.125-.475.225-.976s.25-1.013.413-1.614.238-1.063.375-1.514a2.117,2.117,0,0,0,.125-.651H114.685a4.529,4.529,0,0,0-4.379,3.365,8.518,8.518,0,0,1-.263,1.051c-.138.538-.275,1.076-.4,1.614s-.25.938-.313,1.188a.2.2,0,0,1,0,.138h0a4.2,4.2,0,0,0,.788,3.753,4,4,0,0,0,3.34,1.614h7.531a.463.463,0,0,1,.438.225.475.475,0,0,1,0,.5,1.084,1.084,0,0,1-.088.45,5,5,0,0,0-.163.688,5,5,0,0,0-.15.626,1.126,1.126,0,0,0,0,.288.651.651,0,0,1-.6.45h-13.2a6.459,6.459,0,0,1-.238.976c-.138.513-.238,1.038-.4,1.639s-.25,1.1-.35,1.539a4.866,4.866,0,0,0-.15.676H121.1a4.316,4.316,0,0,0,2.8-.951,5,5,0,0,0,1.614-2.5,3.76,3.76,0,0,1,.188-.826c.1-.413.225-.851.35-1.326s.225-.913.288-1.251.125-.538.125-.563h0a4.366,4.366,0,0,0-.751-3.753,4.066,4.066,0,0,0-3.353-1.614H114.86a.6.6,0,0,1-.438-.225.651.651,0,0,1-.125-.5.762.762,0,0,1,.125-.45,5.757,5.757,0,0,1,.15-.688,5.47,5.47,0,0,1,.163-.626v-.288a.525.525,0,0,1,.213-.313.5.5,0,0,1,.375-.15Z" transform="translate(-57.871 -39.015)" fill="#fff" fill-rule="evenodd"/>
  <path id="Path_44" data-name="Path 44" d="M173.322,64.943l.751-3.315H167.63c-1.464,0-1.964-.913-1.526-2.627a2.84,2.84,0,0,1,1.076-1.6,3.3,3.3,0,0,1,2.177-.763h2.314l-.225.938h-2.5a1.726,1.726,0,0,0-1.4.826,2.6,2.6,0,0,0-.45,1.489c0,.513.175.776.538.826h6.655l1-4.078v-.113a2.5,2.5,0,0,0-.275-2,2.677,2.677,0,0,0-2.239-1h-3.753a6.618,6.618,0,0,0-5.842,3.615,6.518,6.518,0,0,0-.388,5.279A3.753,3.753,0,0,0,164.04,64.1a4.516,4.516,0,0,0,2.5.738Zm-13.223,0,.713-3.315h-5.98c-1.526,0-2.039-.888-1.526-2.627a2.777,2.777,0,0,1,1.076-1.6,3.278,3.278,0,0,1,2.177-.763h5.5l.738-3.115h-6.48a6.655,6.655,0,0,0-5.855,3.615,6.555,6.555,0,0,0-.375,5.279,3.566,3.566,0,0,0,1.251,1.689,4.516,4.516,0,0,0,2.5.738Zm-15.55-3.315H142.2c-1.539,0-2.039-.888-1.539-2.627a2.9,2.9,0,0,1,1.076-1.6,3.515,3.515,0,0,1,2.252-.763h1.739l-.275,1.251Zm2.84,3.265,2.727-11.372h-6.48a6.618,6.618,0,0,0-5.842,3.615,6.518,6.518,0,0,0-.388,5.279,3.665,3.665,0,0,0,1.251,1.689,4.454,4.454,0,0,0,2.5.738Zm-21.68-11.372-.8,3.228h5.98c1.539,0,2.064.926,1.564,2.665a3.265,3.265,0,0,1-1.1,1.6,3.54,3.54,0,0,1-2.152.751h-1.852l.938-3.891H124.62l-2.74,11.259h3.59l1.051-4.241h2.89a6.555,6.555,0,0,0,5.842-3.628,6.48,6.48,0,0,0,.413-5.242,3.99,3.99,0,0,0-1.251-1.726,4.366,4.366,0,0,0-2.5-.7Z" transform="translate(-53.907 -37.133)" fill="#fff" fill-rule="evenodd"/>
  <path id="Path_52" data-name="Path 52" d="M185.325,66.83h-5c.163-.538.375-1.389.663-2.6s.663-2.5.976-3.841.663-2.5.913-3.54.35-1.489.35-1.489c-.851,1.251-1.8,2.69-2.877,4.2s-2.014,2.877-2.84,4.016-1.251,1.726-1.251,1.726a3.278,3.278,0,0,1-1.989-.688,3.34,3.34,0,0,1-1.1-1.839c0-.15-.125-.626-.288-1.451s-.313-1.676-.5-2.652-.35-1.852-.475-2.615-.225-1.138-.225-1.138c-.125.575-.338,1.451-.663,2.715s-.626,2.59-.976,3.978-.626,2.652-.888,3.666l-.375,1.551h-5c.1-.413.375-1.551.813-3.44s.988-3.978,1.551-6.255,1.176-4.366,1.676-6.13a22.5,22.5,0,0,0,.626-2.652A3.153,3.153,0,0,1,171.451,46h2.94c.063.213.188.913.413,2.052s.463,2.5.751,3.916.513,2.7.726,3.816l.313,1.639L184.737,46h5.655c-.125.438-.438,1.726-.938,3.841s-1.076,4.454-1.714,7.081-1.251,4.892-1.676,6.881S185.325,66.83,185.325,66.83Z" transform="translate(-43.392 -39.02)" fill="#fff" fill-rule="evenodd"/>
  <path id="Path_45" data-name="Path 45" d="M70.41,51.979a19.779,19.779,0,0,0,4.078,12.01,15.538,15.538,0,0,0,4.866,4.091c.851.425,1.726.7,2.5,1.088,0-.1,0-.075-.113-.138-12.223-7.869-3.165-24.92,6.73-26.947,0-.2-.55-.463-.726-.575a6.943,6.943,0,0,0-2.3-.988c-.7-.2-.788-.088-1.789.238A31.025,31.025,0,0,0,70.585,49.69a13.1,13.1,0,0,0-.175,2.289Z" transform="translate(-66.827 -40.42)" fill="#fff" fill-rule="evenodd"/>
  <path id="Path_46" data-name="Path 46" d="M75.6,58.173c0,.263,0,.175.1.25a10.771,10.771,0,0,1,1-3.215,7.507,7.507,0,0,1,.525-.863,8.907,8.907,0,0,1,1.251-1.539,14.224,14.224,0,0,1,3.753-2.6,15.513,15.513,0,0,1,8.882-1.414,17.727,17.727,0,0,1,10.434,5.154l.976,1.088.325.413a5.1,5.1,0,0,0,.638.8,2.728,2.728,0,0,1,.138-.288,8.194,8.194,0,0,0,.325-3.628c-2.5-3.24-8.119-10.484-13.261-10.621a20.379,20.379,0,0,0-12.41,8.057A14.6,14.6,0,0,0,75.6,58.173Z" transform="translate(-65.525 -40.097)" fill="#fff" fill-rule="evenodd"/>
  <path id="Path_47" data-name="Path 47" d="M93.935,65.335v-.1a24.82,24.82,0,0,1-2.5,1.7c-.3.163-.613.288-.963.438a9.858,9.858,0,0,1-2.752.676,15.613,15.613,0,0,1-7.031-1.076l-.951-.413a4.2,4.2,0,0,1-.475-.238,14.525,14.525,0,0,1-2.5-1.651L75.07,63.008l-.963-1.126c-.213-.275-.413-.525-.6-.788s-.375-.513-.55-.813l-.988-1.764a17.514,17.514,0,0,1-1.714-8.007,8.068,8.068,0,0,0-1.414,1.251l-.213.213a7.919,7.919,0,0,0-.926,1.251,3.215,3.215,0,0,0-.1,1.576c0,.588,0,1.138,0,1.689a15.609,15.609,0,0,0,.188,1.6A31.676,31.676,0,0,0,72,69.888a15.425,15.425,0,0,0,2.5.976,3.134,3.134,0,0,1,.676.2,18.915,18.915,0,0,0,3.841.613H82.4a18.2,18.2,0,0,0,2.977-.55,17.929,17.929,0,0,0,2.615-.913,15.45,15.45,0,0,0,3.753-2.427c.088-.075.125-.138.225-.213a3.28,3.28,0,0,0,.263-.213l.876-.926a2,2,0,0,0,.2-.238Z" transform="translate(-67.546 -37.888)" fill="#fff" fill-rule="evenodd"/>
  <path id="Path_48" data-name="Path 48" d="M74.131,71.345a2.277,2.277,0,0,0-.651-.175,8.194,8.194,0,0,0,2.027,3.453c3.953,1.751,11.259,2.177,17.026.776l1.339-1.664L94.948,72.1A19.241,19.241,0,0,0,97.6,64.026c1.063-5.73-2.69-10.371-2.69-10.8C98.738,64.377,87.041,75.223,74.131,71.345Z" transform="translate(-66.057 -37.205)" fill="#fff" fill-rule="evenodd"/>
  <path id="Path_49" data-name="Path 49" d="M96.329,66.952a20.854,20.854,0,0,1-3.29,7.719,14.8,14.8,0,0,0,3.891-.826c1.251-1.614,5-6.405,5.942-16.063a23.181,23.181,0,0,0-5.454-6.055,19.578,19.578,0,0,0-7.619-3.4,16,16,0,0,0-6.843.338.838.838,0,0,0-.626.25C93.176,47.874,97.78,59.421,96.329,66.952Z" transform="translate(-63.835 -38.492)" fill="#fff" fill-rule="evenodd"/>
  <g id="Group_65" data-name="Group 65" transform="translate(12.828 14.874)" clip-path="url(#clip-path)">
    <path id="Path_50" data-name="Path 50" d="M90.673,52.31H83.517a3.453,3.453,0,0,0-2.677,1.977,4,4,0,0,0-.288,3.653c-.1,0-2.652.338-2.752.338h7.506c0-.225-.138-.2-.2-.475l1.551.851-1.8,1.1.25-.425h-6.33a2.5,2.5,0,0,0-.863,0,6.681,6.681,0,0,1,1.251.225,17.674,17.674,0,0,1-.538,2.077h.888c1.176,0,6.618.088,7.106-.088a4.066,4.066,0,0,0,1.526-1.251,4.116,4.116,0,0,0,.913-3.253c-.188-1.151-.926-1.063.926-1.251.363,0,.938-.125,1.251-.15H83.73c0,.213.15.213.225.45a8.857,8.857,0,0,1-1.539-.851c.263-.2.588-.375.876-.55s.575-.363.888-.525l-.238.425h7.431c-.075,0-.963-.138-1.151-.175-1.126-.163-.963-.175-.438-.913A6.117,6.117,0,0,0,90.673,52.31Z" transform="translate(-77.8 -52.31)" fill="#fff"/>
  </g>
</svg>
