<svg xmlns="http://www.w3.org/2000/svg" xmlns:xlink="http://www.w3.org/1999/xlink" width="93" height="93" viewBox="0 0 93 93">
  <defs>
    <linearGradient id="linear-gradient" y1="0.5" x2="1" y2="0.5" gradientUnits="objectBoundingBox">
      <stop offset="0" stop-color="#77c5f2"/>
      <stop offset="0.293" stop-color="#159aea"/>
      <stop offset="0.678" stop-color="#006aaa"/>
      <stop offset="1" stop-color="#22497d"/>
    </linearGradient>
    <filter id="Path_106" x="0" y="0" width="93" height="93" filterUnits="userSpaceOnUse">
      <feOffset dy="5" input="SourceAlpha"/>
      <feGaussianBlur stdDeviation="7.5" result="blur"/>
      <feFlood flood-color="#159aea" flood-opacity="0.302"/>
      <feComposite operator="in" in2="blur"/>
      <feComposite in="SourceGraphic"/>
    </filter>
  </defs>
  <g id="Group_118" data-name="Group 118" transform="translate(-1232.5 -669.5)">
    <g transform="matrix(1, 0, 0, 1, 1232.5, 669.5)" filter="url(#Path_106)">
      <path id="Path_106-2" data-name="Path 106" d="M24,0A24,24,0,1,1,0,24,24,24,0,0,1,24,0Z" transform="translate(22.5 17.5)" fill="url(#linear-gradient)"/>
    </g>
    <g id="_27223" data-name="27223" transform="translate(1273.458 703.074)">
      <path id="Path_56" data-name="Path 56" d="M10.568.342C9.209-.461,8.107.2,8.107,1.81v11.9c0,1.615,1.1,2.271,2.461,1.469l10.1-5.966c1.36-.8,1.36-2.1,0-2.907Z" transform="translate(-8.107 0)" fill="#fff"/>
    </g>
  </g>
</svg>
