<svg xmlns="http://www.w3.org/2000/svg" width="23.269" height="18.485" viewBox="0 0 23.269 18.485">
  <g id="Group_70" data-name="Group 70" transform="translate(-1589.005 -761.724)">
    <g id="_59284" data-name="59284" transform="translate(1589.005 761.724)">
      <path id="Path_55" data-name="Path 55" d="M11.641,26.06a1.057,1.057,0,0,1-1.731.813L4.133,22.087H1.057A1.056,1.056,0,0,1,0,21.03V16.82a1.057,1.057,0,0,1,1.057-1.057H4.134l5.777-4.787a1.057,1.057,0,0,1,1.731.814V26.06ZM15.7,24.409l-.076,0a1.056,1.056,0,0,1-.747-.309l-.141-.142a1.056,1.056,0,0,1-.1-1.377,6.144,6.144,0,0,0-.163-7.53,1.056,1.056,0,0,1,.073-1.413l.141-.141a1.034,1.034,0,0,1,.8-.308,1.058,1.058,0,0,1,.766.386,8.463,8.463,0,0,1,.22,10.409A1.057,1.057,0,0,1,15.7,24.409Zm4.369,3.266a1.058,1.058,0,0,1-.763.374h-.044a1.056,1.056,0,0,1-.747-.309l-.139-.139a1.057,1.057,0,0,1-.062-1.427,11.261,11.261,0,0,0-.187-14.713,1.057,1.057,0,0,1,.043-1.446l.139-.139a1.029,1.029,0,0,1,.779-.311,1.057,1.057,0,0,1,.759.354,13.568,13.568,0,0,1,.222,17.755Z" transform="translate(0 -9.565)" fill="#fff"/>
    </g>
  </g>
</svg>
