<svg id="Component_45_1" data-name="Component 45 – 1" xmlns="http://www.w3.org/2000/svg" width="24" height="24" viewBox="0 0 24 24">
  <path id="Polygon_1" data-name="Polygon 1" d="M11.065,2.477a1,1,0,0,1,1.871,0l2.077,5.5a1,1,0,0,0,.868.644L21.587,9a1,1,0,0,1,.59,1.752l-4.476,3.9a1,1,0,0,0-.315.99l1.426,5.865a1,1,0,0,1-1.526,1.069l-4.732-3.15a1,1,0,0,0-1.108,0l-4.732,3.15a1,1,0,0,1-1.526-1.069l1.426-5.865a1,1,0,0,0-.315-.99l-4.476-3.9A1,1,0,0,1,2.413,9l5.706-.384a1,1,0,0,0,.868-.644Z" fill="#e8c021"/>
</svg>
